<svg width="433" height="96" viewBox="0 0 433 96" fill="none" xmlns="http://www.w3.org/2000/svg">
<path d="M46.8325 65.864C45.8085 65.864 44.7205 65.48 43.5685 64.712C42.4165 63.944 41.8405 62.664 41.8405 60.872C41.8405 58.056 42.6725 54.952 44.3365 51.56C46.0645 48.104 48.3045 44.616 51.0565 41.096C53.8725 37.576 56.9445 34.184 60.2725 30.92C63.6645 27.656 67.0245 24.712 70.3525 22.088C73.7445 19.464 76.8485 17.416 79.6645 15.944C82.5445 14.408 84.8165 13.64 86.4805 13.64C88.6565 13.64 89.7445 14.536 89.7445 16.328C89.7445 17.288 89.0085 18.824 87.5365 20.936C86.1285 22.984 83.7925 25.288 80.5285 27.848C77.2645 30.408 72.9445 32.936 67.5685 35.432C62.2565 37.928 55.6645 40.136 47.7925 42.056C44.1445 42.952 40.4325 43.848 36.6565 44.744C32.9445 45.64 29.4245 46.632 26.0965 47.72C22.8325 48.808 20.0165 50.056 17.6485 51.464C15.3445 52.872 13.7445 54.536 12.8485 56.456C12.7205 56.776 12.5285 56.904 12.2725 56.84C12.0805 56.776 12.1125 56.488 12.3685 55.976C13.1365 54.184 14.6725 52.584 16.9765 51.176C19.3445 49.704 22.1605 48.392 25.4245 47.24C28.7525 46.088 32.3045 45.032 36.0805 44.072C39.8565 43.048 43.6005 42.088 47.3125 41.192C53.7125 39.656 59.2165 37.864 63.8245 35.816C68.4965 33.704 72.4005 31.56 75.5365 29.384C78.6725 27.208 81.1685 25.16 83.0245 23.24C84.9445 21.256 86.3205 19.624 87.1525 18.344C87.9845 17 88.4005 16.168 88.4005 15.848C88.4005 14.952 87.8885 14.504 86.8645 14.504C85.3285 14.504 83.4085 15.208 81.1045 16.616C78.8645 18.024 76.4005 19.912 73.7125 22.28C71.0245 24.648 68.2725 27.304 65.4565 30.248C62.7045 33.192 60.0165 36.232 57.3925 39.368C54.8325 42.504 52.5285 45.544 50.4805 48.488C48.4325 51.432 46.8005 54.088 45.5845 56.456C44.4325 58.76 43.8565 60.584 43.8565 61.928C43.8565 63.336 44.1765 64.2 44.8165 64.52C45.5205 64.776 46.2885 64.904 47.1205 64.904C48.6565 64.904 50.2565 64.36 51.9205 63.272C53.5845 62.12 55.1525 60.648 56.6245 58.856C58.1605 57.064 59.4405 55.176 60.4645 53.192C61.4885 51.144 62.1605 49.256 62.4805 47.528C62.6085 47.016 62.8325 46.856 63.1525 47.048C63.5365 47.176 63.6965 47.784 63.6325 48.872C63.5685 50.28 63.0245 51.976 62.0005 53.96C60.9765 55.88 59.6325 57.736 57.9685 59.528C56.3045 61.32 54.5125 62.824 52.5925 64.04C50.6725 65.256 48.7525 65.864 46.8325 65.864ZM8.0485 65.864C5.7445 65.864 3.8885 65.448 2.4805 64.616C1.0085 63.72 0.2725 62.472 0.2725 60.872C0.2725 60.04 0.5925 59.336 1.2325 58.76C1.8085 58.12 2.6085 57.8 3.6325 57.8C4.9125 57.8 5.5525 58.312 5.5525 59.336C5.5525 60.104 5.3285 60.616 4.8805 60.872C4.3685 61.128 3.9525 61.256 3.6325 61.256C2.9925 61.256 2.5445 61.192 2.2885 61.064C1.9685 60.936 1.8085 60.872 1.8085 60.872C1.8085 61.512 2.1285 62.344 2.7685 63.368C3.3445 64.328 4.8165 64.808 7.1845 64.808C9.7445 64.808 12.2085 64.104 14.5765 62.696C17.0085 61.224 19.3445 59.304 21.5845 56.936C23.8885 54.504 26.1285 51.88 28.3045 49.064C30.5445 46.184 32.7845 43.336 35.0245 40.52C36.8165 38.216 38.7365 35.88 40.7845 33.512C42.8325 31.144 44.9125 28.936 47.0245 26.888C49.1365 24.776 51.1205 23.016 52.9765 21.608C53.4885 21.224 53.9365 20.968 54.3205 20.84C54.7685 20.712 54.9285 20.808 54.8005 21.128C54.7365 21.32 54.0325 21.96 52.6885 23.048C51.4085 24.136 49.7765 25.352 47.7925 26.696C45.8085 28.04 43.7285 29.224 41.5525 30.248C39.3765 31.272 37.3925 31.784 35.6005 31.784C34.1925 31.784 33.1045 31.464 32.3365 30.824C31.6325 30.184 31.2805 29.288 31.2805 28.136C31.2805 26.664 31.6325 25.384 32.3365 24.296C33.1045 23.208 33.9365 22.28 34.8325 21.512C35.7925 20.744 36.6245 20.072 37.3285 19.496C38.0965 18.92 38.4805 18.344 38.4805 17.768C38.4805 16.872 37.9685 16.264 36.9445 15.944C35.9845 15.56 34.8325 15.368 33.4885 15.368C30.9925 15.368 28.8165 15.848 26.9605 16.808C25.1685 17.704 23.8885 18.6 23.1205 19.496C22.7365 19.88 22.4165 19.976 22.1605 19.784C21.9045 19.528 21.9045 19.272 22.1605 19.016C22.4805 18.632 23.1525 18.088 24.1765 17.384C25.2005 16.68 26.5125 16.04 28.1125 15.464C29.7125 14.824 31.5045 14.504 33.4885 14.504C34.0645 14.504 34.8645 14.6 35.8885 14.792C36.9765 14.92 37.9365 15.272 38.7685 15.848C39.6645 16.424 40.1125 17.416 40.1125 18.824C40.1125 20.552 39.7285 21.96 38.9605 23.048C38.1925 24.136 37.3285 25.032 36.3685 25.736C35.4085 26.376 34.5445 26.92 33.7765 27.368C33.0085 27.816 32.6245 28.328 32.6245 28.904C32.6245 29.352 32.9125 29.8 33.4885 30.248C34.0645 30.632 34.8965 30.824 35.9845 30.824C37.7765 30.824 39.6325 30.312 41.5525 29.288C43.5365 28.264 45.4885 26.984 47.4085 25.448C49.3925 23.912 51.3125 22.344 53.1685 20.744C55.0245 19.08 56.7205 17.64 58.2565 16.424C59.8565 15.144 61.2645 14.344 62.4805 14.024C62.8005 13.896 63.0245 13.896 63.1525 14.024C63.3445 14.088 63.1845 14.28 62.6725 14.6C60.8805 15.56 58.8965 17.224 56.7205 19.592C54.6085 21.896 52.3365 24.616 49.9045 27.752C47.4725 30.888 44.9125 34.184 42.2245 37.64C39.6005 41.096 36.8805 44.488 34.0645 47.816C31.3125 51.144 28.4965 54.184 25.6165 56.936C22.7365 59.624 19.8245 61.8 16.8805 63.464C13.9365 65.064 10.9925 65.864 8.0485 65.864ZM93.553 48.2C93.297 48.712 92.913 49.16 92.401 49.544C91.953 49.928 91.601 50.184 91.345 50.312C91.153 50.376 91.217 50.184 91.537 49.736C92.689 48.328 93.425 47.016 93.745 45.8C94.129 44.584 94.129 43.624 93.745 42.92C93.425 42.152 92.785 41.768 91.825 41.768C90.545 41.768 89.041 42.28 87.313 43.304C85.585 44.328 83.793 45.672 81.937 47.336C80.145 49 78.449 50.792 76.849 52.712C75.313 54.568 74.065 56.392 73.105 58.184C72.145 59.912 71.665 61.416 71.665 62.696C71.665 63.656 71.857 64.264 72.241 64.52C72.625 64.776 73.009 64.904 73.393 64.904C74.865 64.904 76.561 64.232 78.481 62.888C80.465 61.48 82.481 59.72 84.529 57.608C86.577 55.496 88.529 53.352 90.385 51.176C92.241 48.936 93.841 46.92 95.185 45.128C96.593 43.336 97.553 42.12 98.065 41.48C98.769 41.736 99.601 41.832 100.561 41.768C101.585 41.704 102.449 41.64 103.153 41.576C103.025 41.768 102.353 42.568 101.137 43.976C99.985 45.384 98.577 47.08 96.913 49.064C95.313 50.984 93.681 52.968 92.017 55.016C90.417 57.064 89.073 58.856 87.985 60.392C86.897 61.928 86.353 62.952 86.353 63.464C86.353 64.104 86.481 64.52 86.737 64.712C87.057 64.84 87.537 64.904 88.177 64.904C88.945 64.84 90.065 64.488 91.537 63.848C93.009 63.144 94.897 61.8 97.201 59.816C99.505 57.832 102.289 54.888 105.553 50.984C105.553 50.984 105.681 51.08 105.937 51.272C106.257 51.464 106.417 51.56 106.417 51.56C102.577 56.04 99.025 59.56 95.761 62.12C92.497 64.616 89.521 65.864 86.833 65.864C85.425 65.864 84.465 65.64 83.953 65.192C83.505 64.744 83.281 64.104 83.281 63.272C83.281 62.632 83.537 61.864 84.049 60.968C84.625 60.008 85.265 59.08 85.969 58.184C86.673 57.288 87.249 56.584 87.697 56.072C87.697 56.072 87.633 56.04 87.505 55.976C87.377 55.912 87.313 55.88 87.313 55.88C85.841 57.672 84.273 59.336 82.609 60.872C80.945 62.408 79.281 63.624 77.617 64.52C76.017 65.416 74.449 65.864 72.913 65.864C71.313 65.864 70.193 65.48 69.553 64.712C68.913 63.88 68.593 62.632 68.593 60.968C68.593 59.368 69.105 57.448 70.129 55.208C71.153 52.904 72.625 50.664 74.545 48.488C76.465 46.248 78.769 44.392 81.457 42.92C84.209 41.448 87.281 40.712 90.673 40.712C92.337 40.712 93.489 41.032 94.129 41.672C94.769 42.248 95.057 42.952 94.993 43.784C94.929 44.616 94.737 45.448 94.417 46.28C94.097 47.112 93.809 47.752 93.553 48.2ZM105.531 52.424C105.275 52.68 105.083 52.712 104.955 52.52C104.827 52.264 104.795 52.008 104.859 51.752C105.947 50.664 107.003 49.384 108.027 47.912C109.115 46.44 110.011 45.064 110.715 43.784C111.483 42.504 111.931 41.64 112.059 41.192C112.187 41.192 112.379 41.096 112.635 40.904C112.955 40.712 113.243 40.648 113.499 40.712C113.435 41.16 113.339 41.576 113.211 41.96C113.147 42.344 113.371 42.696 113.883 43.016C114.395 43.336 115.451 43.656 117.051 43.976C118.651 44.296 121.083 44.648 124.347 45.032C124.667 45.096 124.891 45.224 125.019 45.416C125.211 45.544 125.115 45.768 124.731 46.088C123.515 47.048 122.171 48.264 120.699 49.736C119.227 51.208 117.787 52.776 116.379 54.44C115.035 56.04 113.915 57.608 113.019 59.144C112.187 60.68 111.771 61.96 111.771 62.984C111.771 64.136 112.283 64.712 113.307 64.712C114.587 64.712 116.027 64.2 117.627 63.176C119.291 62.152 120.955 60.904 122.619 59.432C124.283 57.896 125.819 56.36 127.227 54.824C128.699 53.224 129.915 51.912 130.875 50.888L131.643 51.464C130.747 52.36 129.595 53.608 128.187 55.208C126.779 56.808 125.179 58.44 123.387 60.104C121.659 61.704 119.803 63.08 117.819 64.232C115.835 65.32 113.787 65.864 111.675 65.864C110.459 65.864 109.371 65.576 108.411 65C107.451 64.488 106.971 63.528 106.971 62.12C106.971 60.776 107.547 59.368 108.699 57.896C109.851 56.424 111.291 54.952 113.019 53.48C114.747 51.944 116.539 50.504 118.395 49.16C120.315 47.752 122.011 46.472 123.483 45.32L124.155 46.184C123.515 45.928 122.395 45.704 120.795 45.512C119.195 45.256 117.531 44.936 115.803 44.552C114.075 44.104 112.571 43.528 111.291 42.824C110.075 42.12 109.467 41.16 109.467 39.944C109.467 39.304 109.723 38.536 110.235 37.64C110.811 36.68 111.579 36.2 112.539 36.2C113.435 36.2 114.043 36.392 114.363 36.776C114.683 37.096 114.843 37.544 114.843 38.12C114.843 38.504 114.523 39.304 113.883 40.52C113.243 41.672 112.443 43.048 111.483 44.648C110.523 46.184 109.499 47.656 108.411 49.064C107.387 50.472 106.427 51.592 105.531 52.424ZM161.47 6.824C162.174 6.952 163.038 7.016 164.062 7.016C165.15 7.016 166.014 6.952 166.654 6.824L133.246 53.384C132.222 54.92 131.23 56.36 130.27 57.704C129.31 59.048 128.542 60.232 127.966 61.256C127.326 62.216 127.006 62.984 127.006 63.56C127.006 64.008 127.198 64.328 127.582 64.52C127.902 64.712 128.382 64.808 129.022 64.808C130.494 64.808 132.126 64.296 133.918 63.272C135.71 62.184 137.47 60.84 139.198 59.24C140.99 57.64 142.622 56.072 144.094 54.536C145.63 53 146.846 51.752 147.742 50.792L148.414 51.368C147.582 52.264 146.43 53.512 144.958 55.112C143.486 56.712 141.79 58.344 139.87 60.008C138.014 61.608 136.062 62.984 134.014 64.136C132.03 65.288 130.078 65.864 128.158 65.864C127.134 65.864 126.27 65.576 125.566 65C124.798 64.424 124.414 63.592 124.414 62.504C124.414 61.8 124.67 60.904 125.182 59.816C125.694 58.728 126.334 57.608 127.102 56.456C127.806 55.24 128.51 54.152 129.214 53.192C129.854 52.168 130.366 51.4 130.75 50.888L161.47 6.824ZM152.137 65.864C149.129 65.864 147.145 65.192 146.185 63.848C145.225 62.44 144.745 60.968 144.745 59.432C144.745 56.808 145.417 54.376 146.761 52.136C148.105 49.832 149.833 47.784 151.945 45.992C154.057 44.2 156.233 42.824 158.473 41.864C160.777 40.84 162.825 40.328 164.617 40.328C165.897 40.328 166.921 40.52 167.689 40.904C168.457 41.224 168.841 41.928 168.841 43.016C168.841 44.04 168.233 45.128 167.017 46.28C165.801 47.432 164.265 48.552 162.409 49.64C160.553 50.664 158.601 51.624 156.553 52.52C154.569 53.352 152.745 54.024 151.081 54.536C149.417 55.048 148.201 55.304 147.433 55.304C147.433 55.304 147.433 55.144 147.433 54.824C147.433 54.44 147.433 54.248 147.433 54.248C148.009 54.312 149.001 54.12 150.409 53.672C151.881 53.224 153.513 52.648 155.305 51.944C157.097 51.176 158.825 50.312 160.489 49.352C162.217 48.392 163.625 47.368 164.713 46.28C165.865 45.192 166.441 44.136 166.441 43.112C166.441 42.6 166.281 42.152 165.961 41.768C165.705 41.384 165.225 41.192 164.521 41.192C163.497 41.192 162.249 41.704 160.777 42.728C159.369 43.688 157.929 44.968 156.457 46.568C154.985 48.168 153.609 49.864 152.329 51.656C151.049 53.448 149.993 55.176 149.161 56.84C148.393 58.44 148.009 59.784 148.009 60.872C148.009 62.152 148.393 63.112 149.161 63.752C149.929 64.392 151.049 64.712 152.521 64.712C155.081 64.712 157.481 64.104 159.721 62.888C162.025 61.608 164.105 60.136 165.961 58.472C167.817 56.744 169.385 55.144 170.665 53.672C171.945 52.136 172.809 51.144 173.257 50.696C173.257 50.696 173.353 50.792 173.545 50.984C173.801 51.176 173.929 51.272 173.929 51.272C173.481 51.784 172.617 52.808 171.337 54.344C170.057 55.88 168.457 57.544 166.537 59.336C164.617 61.128 162.441 62.664 160.009 63.944C157.577 65.224 154.953 65.864 152.137 65.864ZM182.631 40.616C183.527 40.872 184.455 41 185.415 41C186.375 40.936 187.367 40.872 188.391 40.808C186.663 42.472 184.711 44.456 182.535 46.76C180.423 49 178.375 51.272 176.391 53.576C174.471 55.816 172.871 57.832 171.591 59.624C170.311 61.352 169.671 62.536 169.671 63.176C169.671 63.624 169.831 64.04 170.151 64.424C170.471 64.744 171.015 64.904 171.783 64.904C174.023 64.904 176.327 64.232 178.695 62.888C181.127 61.544 183.463 59.848 185.703 57.8C188.007 55.688 190.151 53.512 192.135 51.272C194.119 48.968 195.847 46.888 197.319 45.032C198.855 43.112 199.975 41.704 200.679 40.808C201.191 40.936 202.023 41 203.175 41C204.391 41 205.223 40.968 205.671 40.904C199.079 48.84 193.287 56.136 188.295 62.792C183.367 69.384 178.919 75.048 174.951 79.784C170.983 84.584 167.207 88.296 163.623 90.92C159.975 93.544 156.167 94.856 152.199 94.856C149.767 94.856 148.551 93.896 148.551 91.976C148.551 90.568 149.447 89.096 151.239 87.56C152.967 86.024 155.303 84.424 158.247 82.76C161.191 81.16 164.455 79.56 168.039 77.96C171.623 76.36 175.271 74.824 178.983 73.352C183.847 71.432 187.847 69.32 190.983 67.016C194.183 64.776 196.967 62.312 199.335 59.624C201.767 56.936 204.231 53.992 206.727 50.792L207.495 51.272C204.935 54.536 202.407 57.544 199.911 60.296C197.415 62.984 194.567 65.48 191.367 67.784C188.167 70.088 184.135 72.232 179.271 74.216C175.623 75.688 172.071 77.192 168.615 78.728C165.095 80.328 161.927 81.864 159.111 83.336C156.231 84.872 153.959 86.376 152.295 87.848C150.567 89.32 149.703 90.696 149.703 91.976C149.703 92.744 149.959 93.224 150.471 93.416C150.983 93.672 151.655 93.8 152.487 93.8C154.471 93.8 156.615 93.032 158.919 91.496C161.159 89.96 163.527 87.88 166.023 85.256C168.519 82.632 171.047 79.656 173.607 76.328C176.231 73.064 178.887 69.672 181.575 66.152C184.263 62.632 186.983 59.208 189.735 55.88L189.351 55.688C189.223 55.88 188.775 56.36 188.007 57.128C187.239 57.896 186.247 58.76 185.031 59.72C183.815 60.68 182.439 61.64 180.903 62.6C179.367 63.56 177.735 64.36 176.007 65C174.343 65.576 172.647 65.864 170.919 65.864C169.703 65.864 168.775 65.576 168.135 65C167.431 64.488 167.079 63.752 167.079 62.792C167.079 61.256 167.591 59.528 168.615 57.608C169.639 55.624 170.983 53.608 172.647 51.56C174.247 49.512 175.943 47.528 177.735 45.608C179.527 43.688 181.159 42.024 182.631 40.616Z" fill="white"/>
<path d="M242.145 23.336C242.849 23.336 243.105 23.496 242.913 23.816C242.721 24.072 242.433 24.2 242.049 24.2C241.217 24.2 240.129 24.456 238.785 24.968C237.505 25.416 236.225 26.12 234.945 27.08C233.665 27.976 232.577 29.128 231.681 30.536C230.785 31.944 230.337 33.608 230.337 35.528C230.337 37.896 230.913 39.912 232.065 41.576C233.217 43.24 234.977 44.52 237.345 45.416C239.713 46.248 242.657 46.664 246.177 46.664C249.313 46.664 252.673 46.088 256.257 44.936C259.905 43.72 263.489 42.12 267.009 40.136C270.593 38.088 273.857 35.816 276.801 33.32C279.745 30.824 282.081 28.264 283.809 25.64C285.601 22.952 286.497 20.392 286.497 17.96C286.497 17.256 286.113 16.552 285.345 15.848C284.641 15.144 283.649 14.792 282.369 14.792C279.489 14.792 276.833 15.528 274.401 17C271.969 18.472 269.633 20.52 267.393 23.144C265.153 25.704 262.881 28.68 260.577 32.072C258.337 35.464 255.969 39.08 253.473 42.92C251.873 45.352 249.985 47.912 247.809 50.6C245.697 53.224 243.265 55.72 240.513 58.088C237.761 60.392 234.657 62.28 231.201 63.752C227.809 65.16 224.001 65.864 219.776 65.864C214.208 65.864 211.424 64.712 211.424 62.408C211.424 61.704 212.128 60.968 213.536 60.2C214.88 59.368 216.928 58.952 219.68 58.952C222.304 58.952 224.609 59.272 226.593 59.912C228.577 60.488 230.593 61.16 232.641 61.928C234.753 62.696 237.217 63.4 240.033 64.04C242.849 64.616 246.401 64.904 250.689 64.904C252.609 64.904 254.721 64.616 257.025 64.04C259.329 63.4 261.025 62.376 262.113 60.968C262.369 60.648 262.625 60.52 262.881 60.584C263.137 60.648 263.105 60.936 262.785 61.448C262.017 62.536 260.577 63.688 258.465 64.904C256.417 66.056 253.729 66.632 250.401 66.632C247.841 66.632 245.153 66.344 242.337 65.768C239.521 65.192 236.737 64.52 233.984 63.752C231.233 62.92 228.641 62.216 226.209 61.64C223.777 61.064 221.632 60.776 219.776 60.776C217.536 60.776 215.776 60.968 214.496 61.352C213.152 61.672 212.48 62.024 212.48 62.408C212.48 63.112 213.184 63.72 214.592 64.232C215.936 64.68 217.696 64.904 219.872 64.904C223.329 64.904 226.401 64.264 229.089 62.984C231.777 61.64 234.241 59.88 236.481 57.704C238.721 55.464 240.833 52.936 242.817 50.12C244.865 47.304 246.913 44.424 248.961 41.48C251.649 37.512 254.305 33.864 256.929 30.536C259.553 27.208 262.241 24.296 264.993 21.8C267.745 19.304 270.625 17.384 273.633 16.04C276.705 14.632 280.001 13.928 283.521 13.928C284.801 13.928 286.017 14.28 287.169 14.984C288.385 15.688 288.993 16.84 288.993 18.44C288.993 20.744 288.033 23.24 286.113 25.928C284.257 28.552 281.761 31.144 278.625 33.704C275.553 36.264 272.097 38.6 268.257 40.712C264.481 42.824 260.673 44.52 256.833 45.8C252.993 47.016 249.409 47.624 246.081 47.624C241.409 47.624 237.729 47.048 235.041 45.896C232.353 44.744 230.433 43.304 229.281 41.576C228.193 39.848 227.648 38.152 227.648 36.488C227.648 34.376 228.321 32.328 229.665 30.344C231.073 28.296 232.865 26.632 235.041 25.352C237.281 24.008 239.649 23.336 242.145 23.336ZM289.671 40.52C292.871 40.52 294.471 42.056 294.471 45.128C294.471 47.496 293.927 49.928 292.839 52.424C291.751 54.856 290.279 57.096 288.423 59.144C286.567 61.128 284.551 62.76 282.375 64.04C280.199 65.256 277.991 65.864 275.751 65.864C274.023 65.864 272.582 65.448 271.43 64.616C270.214 63.72 269.606 62.28 269.606 60.296C269.606 58.44 270.15 56.392 271.238 54.152C272.326 51.848 273.799 49.672 275.655 47.624C277.575 45.576 279.719 43.88 282.087 42.536C284.519 41.192 287.047 40.52 289.671 40.52ZM290.727 41.864C289.639 41.864 288.359 42.344 286.887 43.304C285.415 44.264 283.911 45.512 282.375 47.048C280.839 48.584 279.399 50.248 278.055 52.04C276.775 53.768 275.719 55.464 274.887 57.128C274.119 58.792 273.735 60.2 273.735 61.352C273.735 62.632 274.087 63.528 274.791 64.04C275.495 64.488 276.295 64.712 277.191 64.712C278.663 64.712 280.327 64.104 282.183 62.888C284.039 61.608 285.831 60.008 287.559 58.088C289.287 56.168 290.695 54.152 291.783 52.04C292.935 49.864 293.511 47.88 293.511 46.088C293.511 44.424 293.223 43.304 292.647 42.728C292.071 42.152 291.431 41.864 290.727 41.864ZM292.455 51.752C292.775 51.752 292.903 51.88 292.839 52.136C292.839 52.328 292.679 52.424 292.359 52.424C292.103 52.424 291.719 52.776 291.207 53.48C290.759 54.12 290.343 54.792 289.959 55.496C289.575 56.2 289.383 56.584 289.383 56.648C289.383 58.12 289.927 58.856 291.015 58.856C292.039 58.856 293.191 58.376 294.471 57.416C295.815 56.456 297.095 55.368 298.311 54.152C299.591 52.872 300.615 51.752 301.383 50.792L302.151 51.464C301.319 52.424 300.263 53.576 298.983 54.92C297.703 56.2 296.359 57.352 294.951 58.376C293.543 59.336 292.231 59.816 291.015 59.816C289.991 59.816 289.287 59.592 288.903 59.144C288.519 58.696 288.327 57.896 288.327 56.744C288.327 55.208 288.839 53.992 289.863 53.096C290.951 52.2 291.815 51.752 292.455 51.752ZM309.825 40.616C310.401 40.872 311.265 41 312.417 41C313.633 41 314.657 40.936 315.489 40.808C313.889 42.728 312.097 44.808 310.113 47.048C308.129 49.224 306.241 51.4 304.449 53.576C302.657 55.752 301.185 57.704 300.033 59.432C298.817 61.16 298.209 62.504 298.209 63.464C298.209 64.104 298.401 64.52 298.785 64.712C299.105 64.904 299.521 65 300.033 65C301.569 65 303.265 64.392 305.121 63.176C307.041 61.96 308.993 60.392 310.977 58.472C313.025 56.488 315.009 54.376 316.929 52.136C318.849 49.896 320.609 47.784 322.209 45.8C323.873 43.752 325.281 42.056 326.433 40.712C327.073 40.904 327.969 41 329.121 41C330.273 41 331.265 40.936 332.097 40.808C330.433 42.92 328.577 45.16 326.529 47.528C324.481 49.832 322.497 52.072 320.577 54.248C318.721 56.36 317.185 58.248 315.969 59.912C314.753 61.512 314.145 62.728 314.145 63.56C314.145 63.944 314.305 64.264 314.625 64.52C315.009 64.712 315.521 64.808 316.161 64.808C317.569 64.808 319.073 64.328 320.673 63.368C322.337 62.344 323.969 61.096 325.569 59.624C327.233 58.088 328.801 56.552 330.273 55.016C331.809 53.416 333.121 52.008 334.209 50.792L334.977 51.464C333.953 52.552 332.673 53.928 331.137 55.592C329.665 57.192 328.033 58.792 326.241 60.392C324.513 61.928 322.753 63.24 320.961 64.328C319.169 65.352 317.473 65.864 315.873 65.864C314.977 65.864 314.145 65.608 313.377 65.096C312.609 64.584 312.225 63.656 312.225 62.312C312.225 61.096 312.513 59.848 313.089 58.568C313.665 57.224 314.273 56.072 314.913 55.112C315.553 54.088 315.937 53.48 316.065 53.288L316.737 53.576C316.161 54.408 315.233 55.528 313.953 56.936C312.737 58.28 311.297 59.656 309.633 61.064C308.033 62.408 306.337 63.56 304.545 64.52C302.753 65.416 300.993 65.864 299.265 65.864C296.513 65.864 295.137 64.424 295.137 61.544C295.137 60.328 295.649 58.888 296.673 57.224C297.697 55.496 299.009 53.672 300.609 51.752C302.145 49.768 303.745 47.816 305.409 45.896C307.073 43.976 308.545 42.216 309.825 40.616ZM354.35 65.864C350.958 65.864 349.262 64.872 349.262 62.888C349.262 61.608 349.678 60.232 350.51 58.76C351.406 57.288 352.494 55.816 353.774 54.344C355.054 52.808 356.334 51.304 357.614 49.832C358.958 48.36 360.046 47.016 360.878 45.8C361.774 44.52 362.222 43.432 362.222 42.536C362.222 42.216 362.062 41.96 361.742 41.768C361.486 41.512 361.102 41.384 360.59 41.384C359.822 41.384 358.734 41.768 357.326 42.536C355.982 43.304 354.254 44.616 352.142 46.472C350.094 48.264 347.662 50.696 344.846 53.768C342.03 56.776 338.798 60.552 335.15 65.096C334.574 64.968 333.71 64.904 332.558 64.904C331.406 64.904 330.414 65.032 329.582 65.288C331.438 62.6 333.262 59.976 335.054 57.416C336.846 54.856 338.478 52.52 339.95 50.408C341.486 48.296 342.702 46.568 343.598 45.224C344.494 43.816 344.942 42.952 344.942 42.632C344.942 42.056 344.654 41.768 344.078 41.768C343.438 41.768 342.638 42.28 341.678 43.304C340.718 44.264 339.662 45.512 338.51 47.048C337.358 48.52 336.174 50.024 334.958 51.56L334.094 50.984C335.374 49.512 336.622 47.976 337.838 46.376C339.054 44.776 340.302 43.4 341.582 42.248C342.862 41.096 344.206 40.52 345.614 40.52C346.318 40.52 346.958 40.712 347.534 41.096C348.174 41.416 348.494 41.96 348.494 42.728C348.494 43.432 348.206 44.296 347.63 45.32C347.118 46.28 346.414 47.4 345.518 48.68C344.622 49.896 343.598 51.272 342.446 52.808C341.358 54.28 340.206 55.88 338.99 57.608L339.086 58.184C342.478 54.472 345.326 51.464 347.63 49.16C349.998 46.856 351.95 45.096 353.486 43.88C355.086 42.6 356.462 41.736 357.614 41.288C358.83 40.776 359.982 40.52 361.07 40.52C362.542 40.52 363.598 40.84 364.238 41.48C364.878 42.056 365.198 42.856 365.198 43.88C365.198 45.416 364.75 47.048 363.854 48.776C362.958 50.44 361.838 52.104 360.494 53.768C359.214 55.368 357.902 56.872 356.558 58.28C355.278 59.624 354.19 60.776 353.294 61.736C352.398 62.696 351.95 63.336 351.95 63.656C351.95 64.04 352.046 64.328 352.238 64.52C352.494 64.712 353.102 64.808 354.062 64.808C356.43 64.808 358.67 64.072 360.782 62.6C362.958 61.128 365.038 59.336 367.022 57.224C369.006 55.048 370.862 52.904 372.59 50.792L373.358 51.464C371.63 53.512 369.742 55.656 367.694 57.896C365.646 60.136 363.502 62.024 361.262 63.56C359.022 65.096 356.718 65.864 354.35 65.864ZM390.486 40.52C392.406 40.52 393.718 40.808 394.422 41.384C395.19 41.96 395.574 42.728 395.574 43.688C395.574 44.584 395.35 45.512 394.902 46.472C394.454 47.368 393.974 48.2 393.462 48.968C393.014 49.736 392.726 50.248 392.598 50.504C392.214 51.144 391.766 51.56 391.254 51.752C390.742 51.88 390.902 51.368 391.734 50.216C392.822 48.808 393.622 47.464 394.134 46.184C394.646 44.84 394.678 43.752 394.23 42.92C393.846 42.024 392.758 41.576 390.966 41.576C389.75 41.576 388.31 42.12 386.646 43.208C385.046 44.232 383.382 45.608 381.654 47.336C379.926 49 378.294 50.824 376.758 52.808C375.286 54.728 374.07 56.584 373.11 58.376C372.213 60.104 371.765 61.576 371.765 62.792C371.765 63.688 371.957 64.232 372.341 64.424C372.726 64.616 373.206 64.712 373.782 64.712C375.254 64.712 376.95 64.072 378.87 62.792C380.79 61.448 382.774 59.752 384.822 57.704C386.87 55.656 388.822 53.544 390.678 51.368C392.598 49.128 394.262 47.112 395.67 45.32C397.078 43.464 398.069 42.12 398.646 41.288C399.35 41.48 400.054 41.608 400.758 41.672C401.526 41.672 402.518 41.576 403.734 41.384C399.51 46.248 395.574 51.208 391.926 56.264C388.278 61.32 384.79 66.152 381.462 70.76C378.134 75.368 374.87 79.464 371.669 83.048C368.405 86.696 365.109 89.576 361.781 91.688C358.453 93.8 354.965 94.856 351.317 94.856C350.101 94.856 349.141 94.6 348.438 94.088C347.669 93.576 347.285 92.904 347.285 92.072C347.285 90.664 348.021 89.192 349.493 87.656C350.965 86.184 352.885 84.744 355.253 83.336C357.621 81.928 360.181 80.552 362.933 79.208C365.621 77.928 368.245 76.776 370.805 75.752C373.302 74.728 375.414 73.864 377.142 73.16C380.15 71.944 383.158 70.408 386.166 68.552C389.174 66.696 391.99 64.68 394.614 62.504C397.302 60.328 399.67 58.216 401.718 56.168C403.83 54.12 405.462 52.296 406.614 50.696C406.614 50.696 406.71 50.824 406.902 51.08C407.158 51.336 407.286 51.464 407.286 51.464C405.686 53.576 403.478 56.008 400.661 58.76C397.845 61.448 394.486 64.136 390.582 66.824C386.678 69.512 382.294 71.88 377.43 73.928C375.766 74.632 373.718 75.496 371.285 76.52C368.853 77.544 366.325 78.664 363.701 79.88C361.077 81.16 358.613 82.472 356.309 83.816C354.005 85.224 352.149 86.6 350.741 87.944C349.269 89.352 348.533 90.696 348.533 91.976C348.533 92.424 348.757 92.872 349.205 93.32C349.653 93.768 350.357 93.992 351.317 93.992C353.109 93.992 355.093 93.224 357.269 91.688C359.445 90.152 361.749 88.136 364.181 85.64C366.549 83.144 368.949 80.424 371.381 77.48C373.75 74.6 376.022 71.72 378.198 68.84C380.374 65.96 382.326 63.368 384.054 61.064C385.846 58.76 387.286 57.032 388.374 55.88C388.374 55.88 388.31 55.848 388.182 55.784C388.118 55.72 388.086 55.688 388.086 55.688C387.83 56.008 387.19 56.712 386.166 57.8C385.206 58.824 383.99 59.976 382.518 61.256C381.046 62.472 379.478 63.56 377.814 64.52C376.15 65.416 374.518 65.864 372.918 65.864C371.253 65.864 370.133 65.384 369.557 64.424C368.917 63.464 368.597 62.376 368.597 61.16C368.597 59.112 369.173 56.904 370.325 54.536C371.413 52.168 372.949 49.928 374.934 47.816C376.982 45.704 379.318 43.976 381.942 42.632C384.63 41.224 387.478 40.52 390.486 40.52ZM410.793 65.864C407.785 65.864 405.801 65.192 404.841 63.848C403.881 62.44 403.401 60.968 403.401 59.432C403.401 56.808 404.073 54.376 405.417 52.136C406.761 49.832 408.489 47.784 410.601 45.992C412.713 44.2 414.889 42.824 417.129 41.864C419.433 40.84 421.481 40.328 423.273 40.328C424.553 40.328 425.577 40.52 426.345 40.904C427.113 41.224 427.497 41.928 427.497 43.016C427.497 44.04 426.889 45.128 425.673 46.28C424.457 47.432 422.921 48.552 421.065 49.64C419.209 50.664 417.257 51.624 415.209 52.52C413.225 53.352 411.401 54.024 409.737 54.536C408.073 55.048 406.857 55.304 406.089 55.304C406.089 55.304 406.089 55.144 406.089 54.824C406.089 54.44 406.089 54.248 406.089 54.248C406.665 54.312 407.657 54.12 409.065 53.672C410.537 53.224 412.169 52.648 413.961 51.944C415.753 51.176 417.481 50.312 419.145 49.352C420.873 48.392 422.281 47.368 423.369 46.28C424.521 45.192 425.097 44.136 425.097 43.112C425.097 42.6 424.937 42.152 424.617 41.768C424.361 41.384 423.881 41.192 423.177 41.192C422.153 41.192 420.905 41.704 419.433 42.728C418.025 43.688 416.585 44.968 415.113 46.568C413.641 48.168 412.265 49.864 410.985 51.656C409.705 53.448 408.649 55.176 407.817 56.84C407.049 58.44 406.665 59.784 406.665 60.872C406.665 62.152 407.049 63.112 407.817 63.752C408.585 64.392 409.705 64.712 411.177 64.712C413.737 64.712 416.137 64.104 418.377 62.888C420.681 61.608 422.761 60.136 424.617 58.472C426.473 56.744 428.041 55.144 429.321 53.672C430.601 52.136 431.465 51.144 431.913 50.696C431.913 50.696 432.009 50.792 432.201 50.984C432.457 51.176 432.585 51.272 432.585 51.272C432.137 51.784 431.273 52.808 429.993 54.344C428.713 55.88 427.113 57.544 425.193 59.336C423.273 61.128 421.097 62.664 418.665 63.944C416.233 65.224 413.609 65.864 410.793 65.864Z" fill="white"/>
<path d="M177.9 37.432C176.524 37.432 175.5 37.24 174.828 36.856C174.124 36.472 173.66 36.04 173.436 35.56C173.18 35.048 173.052 34.6 173.052 34.216C173.052 33.864 173.196 33.544 173.484 33.256C173.772 32.936 174.156 32.776 174.636 32.776C175.34 32.776 175.692 33.064 175.692 33.64C175.692 33.928 175.58 34.152 175.356 34.312C175.132 34.472 174.924 34.552 174.732 34.552C174.412 34.552 174.172 34.536 174.012 34.504C173.852 34.44 173.772 34.408 173.772 34.408C173.772 34.536 173.836 34.808 173.964 35.224C174.092 35.64 174.444 36.024 175.02 36.376C175.596 36.728 176.556 36.904 177.9 36.904C179.532 36.904 181.036 36.52 182.412 35.752C183.788 34.984 185.004 34.04 186.06 32.92C187.148 31.8 188.076 30.68 188.844 29.56C189.612 28.44 190.22 27.528 190.668 26.824C191.18 26.056 191.868 25.128 192.732 24.04C193.628 22.952 194.62 21.848 195.708 20.728C196.796 19.608 197.9 18.584 199.02 17.656C200.172 16.696 201.26 15.96 202.284 15.448C202.54 15.32 202.684 15.368 202.716 15.592C202.748 15.784 202.684 15.912 202.524 15.976C201.564 16.456 200.572 17.32 199.548 18.568C198.556 19.784 197.5 21.208 196.38 22.84C195.292 24.44 194.124 26.088 192.876 27.784C191.628 29.48 190.252 31.064 188.748 32.536C187.244 34.008 185.596 35.192 183.804 36.088C182.044 36.984 180.076 37.432 177.9 37.432ZM187.98 23.032C186.796 23.032 185.964 22.76 185.484 22.216C185.036 21.672 184.812 21 184.812 20.2C184.812 19.336 185.164 18.424 185.868 17.464C186.604 16.472 187.58 15.544 188.796 14.68C190.044 13.816 191.468 13.128 193.068 12.616C194.668 12.072 196.332 11.8 198.06 11.8C199.372 11.8 200.62 11.88 201.804 12.04C203.02 12.168 204.188 12.312 205.308 12.472C206.46 12.6 207.564 12.664 208.62 12.664C209.996 12.664 211.116 12.472 211.98 12.088C212.876 11.672 213.564 11.224 214.044 10.744C214.556 10.264 214.924 9.88 215.148 9.592C215.404 9.24 215.596 9.128 215.724 9.256C215.852 9.384 215.852 9.56 215.724 9.784C215.692 9.88 215.468 10.152 215.052 10.6C214.668 11.048 214.076 11.56 213.276 12.136C212.476 12.68 211.436 13.16 210.156 13.576C208.908 13.992 207.404 14.2 205.644 14.2C203.98 14.2 202.62 14.104 201.564 13.912C200.54 13.688 199.596 13.48 198.732 13.288C197.868 13.096 196.876 13 195.756 13C194.54 13 193.308 13.24 192.06 13.72C190.844 14.168 189.724 14.76 188.7 15.496C187.676 16.232 186.844 17.032 186.204 17.896C185.596 18.728 185.292 19.528 185.292 20.296C185.292 21 185.468 21.544 185.82 21.928C186.204 22.28 186.86 22.456 187.788 22.456C188.364 22.456 189.036 22.248 189.804 21.832C190.572 21.384 191.324 20.792 192.06 20.056C192.828 19.288 193.516 18.44 194.124 17.512C194.764 16.584 195.244 15.64 195.564 14.68C195.628 14.424 195.708 14.344 195.804 14.44C195.932 14.536 195.996 14.712 195.996 14.968C195.964 15.864 195.708 16.792 195.228 17.752C194.78 18.68 194.172 19.544 193.404 20.344C192.668 21.144 191.82 21.8 190.86 22.312C189.932 22.792 188.972 23.032 187.98 23.032ZM215.839 7.912C216.223 7.976 216.623 8.024 217.039 8.056C217.487 8.056 217.935 8.008 218.383 7.912C218.351 7.944 218.079 8.328 217.567 9.064C217.055 9.768 216.351 10.728 215.455 11.944C214.591 13.128 213.615 14.472 212.527 15.976C211.471 17.48 210.367 19.032 209.215 20.632C208.095 22.2 206.991 23.736 205.903 25.24C204.847 26.712 203.871 28.056 202.975 29.272C202.111 30.488 201.423 31.464 200.911 32.2C200.399 32.936 200.127 33.32 200.095 33.352C200.095 33.352 200.111 33.384 200.143 33.448C200.175 33.48 200.191 33.512 200.191 33.544C200.991 32.68 201.855 31.736 202.783 30.712C203.711 29.688 204.655 28.728 205.615 27.832C206.575 26.904 207.519 26.152 208.447 25.576C209.407 25 210.287 24.712 211.087 24.712C212.111 24.712 212.767 24.952 213.055 25.432C213.375 25.88 213.535 26.28 213.535 26.632C213.535 27.304 213.311 28.04 212.863 28.84C212.415 29.64 211.855 30.44 211.183 31.24C210.543 32.04 209.887 32.792 209.215 33.496C208.575 34.168 208.031 34.76 207.583 35.272C207.135 35.784 206.911 36.152 206.911 36.376C206.911 36.632 207.103 36.792 207.487 36.856C207.903 36.888 208.239 36.904 208.495 36.904C209.231 36.904 210.031 36.632 210.895 36.088C211.759 35.544 212.607 34.872 213.439 34.072C214.271 33.272 215.023 32.488 215.695 31.72C216.367 30.952 216.879 30.344 217.231 29.896L217.615 30.184C217.295 30.568 216.815 31.16 216.175 31.96C215.535 32.728 214.767 33.544 213.871 34.408C213.007 35.24 212.063 35.96 211.039 36.568C210.015 37.144 208.943 37.432 207.823 37.432C207.407 37.432 206.927 37.32 206.383 37.096C205.839 36.904 205.567 36.472 205.567 35.8C205.567 35.256 205.775 34.632 206.191 33.928C206.639 33.192 207.183 32.44 207.823 31.672C208.463 30.872 209.103 30.104 209.743 29.368C210.415 28.632 210.959 27.96 211.375 27.352C211.823 26.712 212.047 26.2 212.047 25.816C212.047 25.4 211.743 25.192 211.135 25.192C210.367 25.192 209.439 25.56 208.351 26.296C207.295 27 206.175 27.944 204.991 29.128C203.807 30.312 202.623 31.592 201.439 32.968C200.287 34.344 199.215 35.704 198.223 37.048C197.807 36.984 197.343 36.952 196.831 36.952C196.319 36.952 195.839 37.016 195.391 37.144C195.391 37.144 195.679 36.744 196.255 35.944C196.831 35.112 197.615 34.008 198.607 32.632C199.567 31.224 200.655 29.656 201.871 27.928C203.087 26.168 204.335 24.376 205.615 22.552C206.895 20.696 208.143 18.904 209.359 17.176C210.575 15.416 211.663 13.848 212.623 12.472C213.615 11.064 214.399 9.96 214.975 9.16C215.551 8.328 215.839 7.912 215.839 7.912ZM219.373 37.432C217.869 37.432 216.877 37.096 216.397 36.424C215.917 35.72 215.677 34.984 215.677 34.216C215.677 32.904 216.013 31.688 216.685 30.568C217.357 29.416 218.221 28.392 219.277 27.496C220.333 26.6 221.421 25.912 222.541 25.432C223.693 24.92 224.717 24.664 225.613 24.664C226.253 24.664 226.765 24.76 227.149 24.952C227.533 25.112 227.725 25.464 227.725 26.008C227.725 26.52 227.421 27.064 226.813 27.64C226.205 28.216 225.437 28.776 224.509 29.32C223.581 29.832 222.605 30.312 221.581 30.76C220.589 31.176 219.677 31.512 218.845 31.768C218.013 32.024 217.405 32.152 217.021 32.152C217.021 32.152 217.021 32.072 217.021 31.912C217.021 31.72 217.021 31.624 217.021 31.624C217.309 31.656 217.805 31.56 218.509 31.336C219.245 31.112 220.061 30.824 220.957 30.472C221.853 30.088 222.717 29.656 223.549 29.176C224.413 28.696 225.117 28.184 225.661 27.64C226.237 27.096 226.525 26.568 226.525 26.056C226.525 25.8 226.445 25.576 226.285 25.384C226.157 25.192 225.917 25.096 225.565 25.096C225.053 25.096 224.429 25.352 223.693 25.864C222.989 26.344 222.269 26.984 221.533 27.784C220.797 28.584 220.109 29.432 219.469 30.328C218.829 31.224 218.301 32.088 217.885 32.92C217.501 33.72 217.309 34.392 217.309 34.936C217.309 35.576 217.501 36.056 217.885 36.376C218.269 36.696 218.829 36.856 219.565 36.856C220.845 36.856 222.045 36.552 223.165 35.944C224.317 35.304 225.357 34.568 226.285 33.736C227.213 32.872 227.997 32.072 228.637 31.336C229.277 30.568 229.709 30.072 229.933 29.848C229.933 29.848 229.981 29.896 230.077 29.992C230.205 30.088 230.269 30.136 230.269 30.136C230.045 30.392 229.613 30.904 228.973 31.672C228.333 32.44 227.533 33.272 226.573 34.168C225.613 35.064 224.525 35.832 223.309 36.472C222.093 37.112 220.781 37.432 219.373 37.432Z" fill="white"/>
<path d="M196.824 86H193.816V85.568H194.872V75.232H193.816V74.8H197.192C197.512 74.8 197.864 74.8533 198.248 74.96C198.632 75.0667 198.995 75.2373 199.336 75.472C199.667 75.696 199.944 75.9947 200.168 76.368C200.392 76.7307 200.504 77.168 200.504 77.68C200.504 78.5867 200.211 79.3067 199.624 79.84C199.038 80.3733 198.195 80.64 197.096 80.64H195.32V85.568H196.824V86ZM195.32 75.232V80.192H197.064C197.651 80.192 198.136 80.112 198.52 79.952C198.904 79.792 199.214 79.5893 199.448 79.344C199.672 79.0987 199.827 78.832 199.912 78.544C200.008 78.2453 200.056 77.9573 200.056 77.68C200.056 77.36 199.982 77.056 199.832 76.768C199.683 76.4693 199.475 76.2027 199.208 75.968C198.942 75.744 198.627 75.568 198.264 75.44C197.902 75.3013 197.507 75.232 197.08 75.232H195.32ZM217.437 86H214.429V85.568H215.485V75.232H214.429V74.8H217.805C218.125 74.8 218.477 74.8533 218.861 74.96C219.245 75.0667 219.607 75.2373 219.949 75.472C220.279 75.696 220.557 75.9947 220.781 76.368C221.005 76.7307 221.117 77.168 221.117 77.68C221.117 78.4373 220.909 79.0667 220.493 79.568C220.087 80.0693 219.49 80.3947 218.701 80.544L221.053 85.568H222.429V86H220.781L218.237 80.592C218.109 80.6027 217.986 80.6133 217.869 80.624C217.751 80.6347 217.629 80.64 217.501 80.64H215.933V85.568H217.437V86ZM215.933 75.232V80.192H217.677C218.263 80.192 218.749 80.112 219.133 79.952C219.517 79.792 219.826 79.5893 220.061 79.344C220.285 79.0987 220.439 78.832 220.525 78.544C220.621 78.2453 220.669 77.9573 220.669 77.68C220.669 77.36 220.594 77.056 220.445 76.768C220.295 76.4693 220.087 76.2027 219.821 75.968C219.554 75.744 219.239 75.568 218.877 75.44C218.514 75.3013 218.119 75.232 217.693 75.232H215.933ZM239.362 86H236.354V85.568H237.586V75.232H236.354V74.8H239.362V75.232H238.034V85.568H239.362V86ZM264.175 75.232C263.375 77.1307 262.575 79.0133 261.775 80.88C260.985 82.7467 260.191 84.624 259.391 86.512C258.601 84.624 257.807 82.7467 257.007 80.88C256.207 79.0133 255.407 77.1307 254.607 75.232H253.279V74.8H256.287V75.232H255.087C255.78 76.8853 256.473 78.528 257.167 80.16C257.86 81.792 258.553 83.4347 259.247 85.088L259.391 85.504L259.535 85.088C260.239 83.4347 260.937 81.7973 261.631 80.176C262.324 78.544 263.017 76.896 263.711 75.232H262.543V74.8H265.551V75.232H264.175ZM282.413 86H279.469V85.568H280.685C281.475 83.68 282.269 81.8027 283.069 79.936C283.869 78.0693 284.669 76.1867 285.469 74.288C286.269 76.1867 287.064 78.0693 287.853 79.936C288.653 81.8027 289.448 83.68 290.237 85.568H291.469V86H288.525V85.568H289.773C289.464 84.8213 289.149 84.0747 288.829 83.328C288.509 82.5813 288.195 81.8293 287.885 81.072H283.053C282.723 81.8613 282.403 82.6133 282.093 83.328C281.795 84.0427 281.48 84.7893 281.149 85.568H282.413V86ZM285.325 75.712C284.995 76.5547 284.648 77.3813 284.285 78.192C283.933 79.0027 283.587 79.8187 283.245 80.64H287.693L285.613 75.712L285.469 75.296C285.448 75.3493 285.421 75.4133 285.389 75.488C285.368 75.552 285.347 75.6267 285.325 75.712ZM311.314 86H308.306V85.568H309.586V75.232H305.826V77.264H305.394V74.8H314.242V77.264H313.81V75.232H310.034V85.568H311.314V86ZM336.179 86H328.163V85.568H329.395V75.232H328.163V74.8H335.955V77.264H335.523V75.232H329.843V80.144H335.331V80.576H329.843V85.568H335.747V83.536H336.179V86Z" fill="white"/>
</svg>
